<svg xmlns="http://www.w3.org/2000/svg" viewBox="0 0 64 64" role="img" aria-labelledby="title desc">
  <title id="title">BoltMind</title>
  <desc id="desc">Símbolo abstrato de foco e direção</desc>
  <defs>
    <linearGradient id="blue" x1="15" y1="46" x2="50" y2="17" gradientUnits="userSpaceOnUse">
      <stop stop-color="#136BE0"/>
      <stop offset="1" stop-color="#42D8FF"/>
    </linearGradient>
  </defs>
  <path fill="#142139" d="M32 4c3.9 14.2 10.9 21.9 28 28-17.1 6.1-24.1 13.8-28 28-3.9-14.2-10.9-21.9-28-28C21.1 25.9 28.1 18.2 32 4Z"/>
  <path fill="url(#blue)" d="M32 13.2c2.7 9.8 7.6 14.6 18.8 18.8C39.6 35.4 34.7 40.2 32 50.8c-2.7-10.6-7.6-15.4-18.8-18.8C24.4 27.8 29.3 23 32 13.2Z"/>
  <path fill="#fff" d="m32 24.3 7.7 7.7-7.7 7.7-7.7-7.7 7.7-7.7Z"/>
</svg>
